<svg width="21" height="28" fill="currentColor" id="icon" xmlns="http://www.w3.org/2000/svg"><path d="M20.486.514c-.275 0-.5.225-.5.5v7.1c0 .77-.63 1.4-1.4 1.4h-.1c-.275 0-.5.225-.5.5v15.5c0 .55-.45 1-1 1s-1-.45-1-1v-15.5c0-.275-.225-.5-.5-.5h-.1c-.77 0-1.4-.63-1.4-1.4v-7.1c0-.275-.225-.5-.5-.5s-.5.225-.5.5v7.1c0 1.185.865 2.175 2 2.365v15.035a2 2 0 1 0 4 0V10.479c1.135-.19 2-1.18 2-2.365v-7.1c0-.275-.225-.5-.5-.5Z" fill="#967E76"/><path d="M15.986 8.514c.275 0 .5-.225.5-.5v-7c0-.275-.225-.5-.5-.5s-.5.225-.5.5v7c0 .275.225.5.5.5ZM17.986 8.514c.275 0 .5-.225.5-.5v-7c0-.275-.225-.5-.5-.5s-.5.225-.5.5v7c0 .275.225.5.5.5ZM5.486.514c-2.65 0-4.5 2.9-4.5 5.5 0 1.96 1.02 3.905 2.5 4.865v14.46c0 1.2.895 2.175 2 2.175s2-.975 2-2.175V10.88c1.48-.965 2.5-2.91 2.5-4.865 0-2.6-1.85-5.5-4.5-5.5Zm1 24.825c0 .65-.45 1.175-1 1.175s-1-.525-1-1.175V11.364c.02.005.035.005.055.01.11.03.215.055.325.075l.145.03c.155.02.315.035.475.035.16 0 .32-.014.48-.035.05-.004.095-.02.145-.03.11-.02.215-.04.325-.075.02-.004.035-.004.055-.01V25.34h-.005Zm.26-15.165c-.1.055-.205.105-.31.145a2.47 2.47 0 0 1-1.585.105c-.21-.055-.42-.14-.625-.25-1.3-.71-2.24-2.46-2.24-4.16 0-2.355 1.67-4.5 3.5-4.5s3.5 2.145 3.5 4.5c0 1.7-.94 3.45-2.24 4.16Z" fill="#967E76"/></svg>