<svg width="20" height="20" id="icon" fill="currentColor" xmlns="http://www.w3.org/2000/svg"><path d="M.84 0a.482.482 0 1 0 0 .965c9.922 0 17.993 8.071 17.993 17.993a.482.482 0 1 0 .965 0C19.8 8.506 11.294 0 .84 0Z" fill="#967E76"/><path d="M.84 5.499a.482.482 0 1 0 0 .965c6.888 0 12.493 5.606 12.493 12.494a.482.482 0 1 0 .966 0C14.3 11.538 8.262 5.499.84 5.499Z" fill="#967E76"/><path d="M.84 11.001a.482.482 0 1 0 0 .965c3.856 0 6.994 3.139 6.994 6.995a.482.482 0 1 0 .966 0C8.8 14.57 5.23 11 .84 11ZM2.735 15.995a1.977 1.977 0 1 1-1.513 3.654 1.977 1.977 0 0 1 1.513-3.654Z" fill="#967E76"/></svg>